<?xml version="1.0" encoding="utf-8"?>
<!-- Generator: Adobe Illustrator 18.1.1, SVG Export Plug-In . SVG Version: 6.00 Build 0)  -->
<svg version="1.1" xmlns="http://www.w3.org/2000/svg" xmlns:xlink="http://www.w3.org/1999/xlink" x="0px" y="0px"
	 viewBox="0 0 50 50" enable-background="new 0 0 50 50" xml:space="preserve">
<g id="Backdrop" display="none">
	<rect x="-47" y="-59" display="inline" fill="#BFC2C5" width="144" height="168"/>
</g>
<g id="Format" display="none">
	<rect display="inline" fill="#FFFFFF" width="50" height="50"/>
</g>
<g id="Design">
	
		<polygon fill="#FFFFFF" stroke="#000000" stroke-width="3" stroke-linecap="round" stroke-linejoin="round" stroke-miterlimit="10" points="
		27.5,9.5 23.5,13.5 23.5,18.5 27.5,22.5 32.5,22.5 36.5,18.5 36.5,13.5 32.5,9.5 	"/>
	
		<polygon fill="#FFFFFF" stroke="#000000" stroke-width="3" stroke-linecap="round" stroke-linejoin="round" stroke-miterlimit="10" points="
		34.5,43.5 37.5,40.5 37.5,37.5 33.5,33.5 26.5,33.5 22.5,29.5 13.5,29.5 9.5,33.5 4.5,33.5 1.5,36.5 1.5,40.5 4.5,43.5 	"/>
	
		<line fill="none" stroke="#000000" stroke-width="2" stroke-linecap="round" stroke-linejoin="round" stroke-miterlimit="10" x1="30" y1="1" x2="30" y2="5"/>
	
		<polyline fill="none" stroke="#000000" stroke-width="2" stroke-linecap="round" stroke-linejoin="round" stroke-miterlimit="10" points="
		10,34 16,34 19,37 	"/>
	
		<line fill="none" stroke="#000000" stroke-width="2" stroke-linecap="round" stroke-linejoin="round" stroke-miterlimit="10" x1="21" y1="49" x2="40" y2="49"/>
	
		<line fill="none" stroke="#000000" stroke-width="2" stroke-linecap="round" stroke-linejoin="round" stroke-miterlimit="10" x1="30" y1="29" x2="49" y2="29"/>
	
		<line fill="none" stroke="#000000" stroke-width="2" stroke-linecap="round" stroke-linejoin="round" stroke-miterlimit="10" x1="41" y1="5" x2="38" y2="8"/>
	
		<line fill="none" stroke="#000000" stroke-width="2" stroke-linecap="round" stroke-linejoin="round" stroke-miterlimit="10" x1="19" y1="5" x2="22" y2="8"/>
	
		<line fill="none" stroke="#000000" stroke-width="2" stroke-linecap="round" stroke-linejoin="round" stroke-miterlimit="10" x1="41" y1="16" x2="46" y2="16"/>
	
		<line fill="none" stroke="#000000" stroke-width="2" stroke-linecap="round" stroke-linejoin="round" stroke-miterlimit="10" x1="14" y1="16" x2="19" y2="16"/>
</g>
<g id="Mockup" display="none">
</g>
<g id="Guides" display="none">
</g>
<g id="Comments" display="none">
</g>
</svg>
