<?xml version="1.0" encoding="utf-8"?>
<!-- Generator: Adobe Illustrator 18.1.1, SVG Export Plug-In . SVG Version: 6.00 Build 0)  -->
<svg version="1.1" xmlns="http://www.w3.org/2000/svg" xmlns:xlink="http://www.w3.org/1999/xlink" x="0px" y="0px"
	 viewBox="0 0 50 50" enable-background="new 0 0 50 50" xml:space="preserve">
<g id="Backdrop" display="none">
	<rect x="-47" y="-59" display="inline" fill="#BFC2C5" width="144" height="168"/>
</g>
<g id="Format" display="none">
	<rect display="inline" fill="#FFFFFF" width="50" height="50"/>
</g>
<g id="Design">
	
		<polygon fill="#FFFFFF" stroke="#000000" stroke-width="3" stroke-linecap="round" stroke-linejoin="round" stroke-miterlimit="10" points="
		34.5,12.5 30.5,16.5 30.5,21.5 34.5,25.5 39.5,25.5 43.5,21.5 43.5,16.5 39.5,12.5 	"/>
	
		<polygon fill="#FFFFFF" stroke="#000000" stroke-width="3" stroke-linecap="round" stroke-linejoin="round" stroke-miterlimit="10" points="
		34.5,30.5 37.5,27.5 37.5,22.5 34.5,19.5 27.5,19.5 21.5,13.5 14.5,13.5 9.5,18.5 4.5,18.5 1.5,21.5 1.5,27.5 4.5,30.5 	"/>
	
		<line fill="none" stroke="#000000" stroke-width="2" stroke-linecap="round" stroke-linejoin="round" stroke-miterlimit="10" x1="37" y1="4" x2="37" y2="8"/>
	
		<polyline fill="none" stroke="#000000" stroke-width="2" stroke-linecap="round" stroke-linejoin="round" stroke-miterlimit="10" points="
		10,19 16,19 19,22 	"/>
	
		<line fill="none" stroke="#000000" stroke-width="2" stroke-linecap="round" stroke-linejoin="round" stroke-miterlimit="10" x1="21" y1="35" x2="40" y2="35"/>
	
		<line fill="none" stroke="#000000" stroke-width="2" stroke-linecap="round" stroke-linejoin="round" stroke-miterlimit="10" x1="48" y1="8" x2="45" y2="11"/>
	
		<line fill="none" stroke="#000000" stroke-width="2" stroke-linecap="round" stroke-linejoin="round" stroke-miterlimit="10" x1="26" y1="8" x2="29" y2="11"/>
	
		<line fill="#FFFFFF" stroke="#000000" stroke-width="2" stroke-linecap="round" stroke-linejoin="round" stroke-miterlimit="10" x1="8" y1="38" x2="8" y2="35"/>
	
		<line fill="#FFFFFF" stroke="#000000" stroke-width="2" stroke-linecap="round" stroke-linejoin="round" stroke-miterlimit="10" x1="14" y1="42" x2="14" y2="39"/>
	
		<line fill="#FFFFFF" stroke="#000000" stroke-width="2" stroke-linecap="round" stroke-linejoin="round" stroke-miterlimit="10" x1="21" y1="46" x2="21" y2="43"/>
</g>
<g id="Mockup" display="none">
</g>
<g id="Guides" display="none">
</g>
<g id="Comments" display="none">
</g>
</svg>
